  0
SECTION
  2
HEADER
  9
$ACADVER
  1
AC1009
  9
$INSBASE
 10
0.0
 20
0.0
 30
0.0
  9
$EXTMIN
 10
-50.000000000000007
 20
-62.070242517396032
 30
0.0
  9
$EXTMAX
 10
50.000000000000007
 20
39.839082516100611
 30
0.0
  9
$LIMMIN
 10
0.0
 20
0.0
  9
$LIMMAX
 10
420.0
 20
297.0
  9
$ORTHOMODE
 70
     1
  9
$REGENMODE
 70
     1
  9
$FILLMODE
 70
     1
  9
$QTEXTMODE
 70
     0
  9
$MIRRTEXT
 70
     1
  9
$DRAGMODE
 70
     2
  9
$LTSCALE
 40
1.0
  9
$OSMODE
 70
    45
  9
$ATTMODE
 70
     1
  9
$TEXTSIZE
 40
3.5
  9
$TRACEWID
 40
1.0
  9
$TEXTSTYLE
  7
STANDARD
  9
$CLAYER
  8
0
  9
$CELTYPE
  6
BYLAYER
  9
$CECOLOR
 62
   256
  9
$DIMSCALE
 40
1.0
  9
$DIMASZ
 40
3.302
  9
$DIMEXO
 40
1.0
  9
$DIMDLI
 40
3.75
  9
$DIMRND
 40
0.0
  9
$DIMDLE
 40
0.0
  9
$DIMEXE
 40
1.0
  9
$DIMTP
 40
0.0
  9
$DIMTM
 40
0.0
  9
$DIMTXT
 40
3.5
  9
$DIMCEN
 40
2.5
  9
$DIMTSZ
 40
0.0
  9
$DIMTOL
 70
     0
  9
$DIMLIM
 70
     0
  9
$DIMTIH
 70
     1
  9
$DIMTOH
 70
     1
  9
$DIMSE1
 70
     0
  9
$DIMSE2
 70
     0
  9
$DIMTAD
 70
     1
  9
$DIMZIN
 70
     0
  9
$DIMBLK
  1

  9
$DIMASO
 70
     1
  9
$DIMSHO
 70
     1
  9
$DIMPOST
  1

  9
$DIMAPOST
  1

  9
$DIMALT
 70
     0
  9
$DIMALTD
 70
     3
  9
$DIMALTF
 40
0.0393700787
  9
$DIMLFAC
 40
1.0
  9
$DIMTOFL
 70
     1
  9
$DIMTVP
 40
0.0
  9
$DIMTIX
 70
     0
  9
$DIMSOXD
 70
     0
  9
$DIMSAH
 70
     0
  9
$DIMBLK1
  1

  9
$DIMBLK2
  1

  9
$DIMSTYLE
  2
ISO-25
  9
$DIMCLRD
 70
     0
  9
$DIMCLRE
 70
     0
  9
$DIMCLRT
 70
     0
  9
$DIMTFAC
 40
1.0
  9
$DIMGAP
 40
1.524
  9
$LUNITS
 70
     2
  9
$LUPREC
 70
     2
  9
$SKETCHINC
 40
1.0
  9
$FILLETRAD
 40
1.0
  9
$AUNITS
 70
     0
  9
$AUPREC
 70
     2
  9
$MENU
  1
.
  9
$ELEVATION
 40
0.0
  9
$PELEVATION
 40
0.0
  9
$THICKNESS
 40
0.0
  9
$LIMCHECK
 70
     0
  9
$BLIPMODE
 70
     0
  9
$CHAMFERA
 40
0.0
  9
$CHAMFERB
 40
0.0
  9
$SKPOLY
 70
     0
  9
$TDCREATE
 40
2457837.6781570371
  9
$TDUPDATE
 40
2457840.0524005438
  9
$TDINDWG
 40
0.0308536574
  9
$TDUSRTIMER
 40
0.0308531944
  9
$USRTIMER
 70
     1
  9
$ANGBASE
 50
0.0
  9
$ANGDIR
 70
     0
  9
$PDMODE
 70
     0
  9
$PDSIZE
 40
-1.0
  9
$PLINEWID
 40
0.0
  9
$COORDS
 70
     1
  9
$SPLFRAME
 70
     0
  9
$SPLINETYPE
 70
     6
  9
$SPLINESEGS
 70
     8
  9
$ATTDIA
 70
     1
  9
$ATTREQ
 70
     1
  9
$HANDLING
 70
     1
  9
$HANDSEED
  5
328
  9
$SURFTAB1
 70
     6
  9
$SURFTAB2
 70
     6
  9
$SURFTYPE
 70
     6
  9
$SURFU
 70
     6
  9
$SURFV
 70
     6
  9
$UCSNAME
  2

  9
$UCSORG
 10
0.0
 20
0.0
 30
0.0
  9
$UCSXDIR
 10
1.0
 20
0.0
 30
0.0
  9
$UCSYDIR
 10
0.0
 20
1.0
 30
0.0
  9
$PUCSNAME
  2

  9
$PUCSORG
 10
0.0
 20
0.0
 30
0.0
  9
$PUCSXDIR
 10
1.0
 20
0.0
 30
0.0
  9
$PUCSYDIR
 10
0.0
 20
1.0
 30
0.0
  9
$USERI1
 70
     0
  9
$USERI2
 70
     0
  9
$USERI3
 70
     0
  9
$USERI4
 70
     0
  9
$USERI5
 70
     0
  9
$USERR1
 40
0.0
  9
$USERR2
 40
0.0
  9
$USERR3
 40
0.0
  9
$USERR4
 40
0.0
  9
$USERR5
 40
0.0
  9
$WORLDVIEW
 70
     1
  9
$SHADEDGE
 70
     3
  9
$SHADEDIF
 70
    70
  9
$TILEMODE
 70
     1
  9
$MAXACTVP
 70
    64
  9
$PLIMCHECK
 70
     0
  9
$PEXTMIN
 10
1.0000000000000000E+020
 20
1.0000000000000000E+020
 30
1.0000000000000000E+020
  9
$PEXTMAX
 10
-1.0000000000000000E+020
 20
-1.0000000000000000E+020
 30
-1.0000000000000000E+020
  9
$PLIMMIN
 10
0.0
 20
0.0
  9
$PLIMMAX
 10
420.0
 20
297.0
  9
$UNITMODE
 70
     0
  9
$VISRETAIN
 70
     1
  9
$PLINEGEN
 70
     0
  9
$PSLTSCALE
 70
     1
  0
ENDSEC
  0
SECTION
  2
TABLES
  0
TABLE
  2
VPORT
 70
     1
  0
VPORT
  2
*ACTIVE
 70
     0
 10
0.0
 20
0.0
 11
1.0
 21
1.0
 12
-8.6472618489567594
 22
-53.563509316368489
 13
0.0
 23
0.0
 14
10.0
 24
10.0
 15
10.0
 25
10.0
 16
0.0
 26
0.0
 36
1.0
 17
0.0
 27
0.0
 37
0.0
 40
93.071525198543895
 41
2.492772667542706
 42
50.0
 43
0.0
 44
0.0
 50
0.0
 51
0.0
 71
     0
 72
   100
 73
     1
 74
     3
 75
     0
 76
     0
 77
     0
 78
     0
  0
ENDTAB
  0
TABLE
  2
LTYPE
 70
     7
  0
LTYPE
  2
CONTINUOUS
 70
     0
  3
Solid line
 72
    65
 73
     0
 40
0.0
  0
LTYPE
  2
HIDDEN
 70
     0
  3
Hidden __ __ __ __ __ __ __ __ __ __ __ __ __ __
 72
    65
 73
     2
 40
1.905
 49
1.27
 49
-0.635
  0
LTYPE
  2
PHANTOM
 70
     0
  3
Phantom ______  __  __  ______  __  __  ______
 72
    65
 73
     6
 40
12.699999999999999
 49
6.3499999999999979
 49
-1.27
 49
1.27
 49
-1.27
 49
1.27
 49
-1.27
  0
LTYPE
  2
CENTER
 70
     0
  3
Center ____ _ ____ _ ____ _ ____ _ ____ _ ____
 72
    65
 73
     4
 40
10.16
 49
6.3499999999999979
 49
-1.27
 49
1.27
 49
-1.27
  0
LTYPE
  2
CENTERX2
 70
     0
  3
Center (2x) ________  __  ________  __  _____
 72
    65
 73
     4
 40
20.32
 49
12.699999999999999
 49
-2.54
 49
2.54
 49
-2.54
  0
LTYPE
  2
DOT2
 70
     0
  3
Dot (.5x) ........................................
 72
    65
 73
     2
 40
0.635
 49
0.0
 49
-0.635
  0
ENDTAB
  0
TABLE
  2
LAYER
 70
     1
  0
LAYER
  2
0
 70
     0
 62
     7
  6
CONTINUOUS
  0
ENDTAB
  0
TABLE
  2
STYLE
 70
     3
  0
STYLE
  2
STANDARD
 70
     0
 40
0.0
 41
1.0
 50
0.0
 71
     0
 42
3.5
  3
txt
  4

  0
STYLE
  2
ANNOTATIVE
 70
     0
 40
0.0
 41
1.0
 50
0.0
 71
     0
 42
0.2
  3
txt
  4

  0
ENDTAB
  0
TABLE
  2
VIEW
 70
     0
  0
ENDTAB
  0
TABLE
  2
UCS
 70
     0
  0
ENDTAB
  0
TABLE
  2
APPID
 70
     5
  0
APPID
  2
ACAD
 70
     0
  0
APPID
  2
ACADANNOTATIVE
 70
     0
  0
APPID
  2
ACAD_EXEMPT_FROM_CAD_STANDARDS
 70
     0
  0
APPID
  2
ACAD_NAV_VCDISPLAY
 70
     0
  0
APPID
  2
ACAD_MLEADERVER
 70
     0
  0
ENDTAB
  0
TABLE
  2
DIMSTYLE
 70
     4
  0
DIMSTYLE
  2
STANDARD
 70
     0
  3

  4

  5

  6

  7

 40
1.0
 41
0.18
 42
0.0625
 43
0.38
 44
0.18
 45
0.0
 46
0.0
 47
0.0
 48
0.0
140
0.18
141
0.09
142
0.0
143
25.399999999999999
144
1.0
145
0.0
146
1.0
147
0.09
 71
     0
 72
     0
 73
     1
 74
     1
 75
     0
 76
     0
 77
     0
 78
     0
170
     0
171
     2
172
     0
173
     0
174
     0
175
     0
176
     0
177
     0
178
     0
  0
DIMSTYLE
  2
ANNOTATIVE
 70
     0
  3

  4

  5

  6

  7

 40
1.0
 41
0.18
 42
0.0625
 43
0.38
 44
0.18
 45
0.0
 46
0.0
 47
0.0
 48
0.0
140
0.18
141
0.09
142
0.0
143
25.399999999999999
144
1.0
145
0.0
146
1.0
147
0.09
 71
     0
 72
     0
 73
     1
 74
     1
 75
     0
 76
     0
 77
     0
 78
     0
170
     0
171
     2
172
     0
173
     0
174
     0
175
     0
176
     0
177
     0
178
     0
  0
DIMSTYLE
  2
ISO-25
 70
     0
  3

  4

  5

  6

  7

 40
1.0
 41
2.5
 42
0.625
 43
3.75
 44
1.25
 45
0.0
 46
0.0
 47
0.0
 48
0.0
140
2.5
141
2.5
142
0.0
143
0.0393700787
144
1.0
145
0.0
146
1.0
147
0.625
 71
     0
 72
     0
 73
     0
 74
     0
 75
     0
 76
     0
 77
     1
 78
     8
170
     0
171
     3
172
     1
173
     0
174
     0
175
     0
176
     0
177
     0
178
     0
  0
ENDTAB
  0
ENDSEC
  0
SECTION
  2
BLOCKS
  0
BLOCK
  8
0
  2
$MODEL_SPACE
 70
     0
 10
0.0
 20
0.0
 30
0.0
  3
$MODEL_SPACE
  1

  0
ENDBLK
  5
1E6
  8
0
  0
BLOCK
 67
     1
  8
0
  2
$PAPER_SPACE
 70
     0
 10
0.0
 20
0.0
 30
0.0
  3
$PAPER_SPACE
  1

  0
ENDBLK
  5
1E2
 67
     1
  8
0
  0
ENDSEC
  0
SECTION
  2
ENTITIES
  0
ARC
  5
73
  8
0
  6
CONTINUOUS
 62
     7
 10
0.0
 20
-25.172325814899999
 30
0.0
 40
65.011408331000609
 50
41.118954921700002
 51
138.88104507829999
  0
ARC
  5
74
  8
0
  6
CONTINUOUS
 62
     7
 10
-45.848746727600002
 20
14.8508037137
 30
0.0
 40
4.1512532723635633
 50
138.88104507829999
 51
319.13937592180002
  0
ARC
  5
75
  8
0
  6
CONTINUOUS
 62
     7
 10
-10.2695703216
 20
-15.926072612600001
 30
0.0
 40
42.892278803094243
 50
101.19113183109999
 51
139.1393759218
  0
ARC
  5
76
  8
0
  6
CONTINUOUS
 62
     7
 10
-18.0100196056
 20
23.197833679799999
 30
0.0
 40
3.0100196056325821
 50
0.0
 51
101.19113183109999
  0
ARC
  5
78
  8
0
  6
CONTINUOUS
 62
     7
 10
-40.0
 20
-35.751881026299998
 30
0.0
 40
9.9999999999999982
 50
118.9901764807
 51
180.0
  0
ARC
  5
79
  8
0
  6
CONTINUOUS
 62
     7
 10
-20.335806686400002
 20
2.1349657881000002
 30
0.0
 40
10.0
 50
90.0
 51
169.84296911679999
  0
ARC
  5
7C
  8
0
  6
CONTINUOUS
 62
     7
 10
18.0
 20
15.134965788100001
 30
0.0
 40
3.0
 50
180.0
 51
270.0
  0
ARC
  5
7D
  8
0
  6
CONTINUOUS
 62
     7
 10
18.0100196056
 20
23.197833679799999
 30
0.0
 40
3.0100196056325821
 50
78.808868168900005
 51
180.0
  0
ARC
  5
7E
  8
0
  6
CONTINUOUS
 62
     7
 10
45.848746727600002
 20
14.8508037137
 30
0.0
 40
4.1512532723635633
 50
220.8606240782
 51
41.118954921700002
  0
ARC
  5
7F
  8
0
  6
CONTINUOUS
 62
     7
 10
10.2695703216
 20
-15.926072612600001
 30
0.0
 40
42.892278803094243
 50
40.860624078199997
 51
78.808868168900005
  0
ARC
  5
81
  8
0
  6
CONTINUOUS
 62
     7
 10
40.0
 20
-35.751881026299998
 30
0.0
 40
9.9999999999999982
 50
0.0
 51
61.009823519300006
  0
ARC
  5
82
  8
0
  6
CONTINUOUS
 62
     7
 10
20.335806686400002
 20
2.1349657881000002
 30
0.0
 40
10.0
 50
10.157030883199999
 51
90.0
  0
ARC
  5
83
  8
0
  6
CONTINUOUS
 62
     7
 10
-18.0
 20
15.134965788100001
 30
0.0
 40
3.0
 50
270.0
 51
0.0
  0
ARC
  5
84
  8
0
  6
CONTINUOUS
 62
     7
 10
-52.719102628500004
 20
-8.5019812450999979
 30
0.0
 40
20.0
 50
298.99017648069997
 51
349.84296911680002
  0
ARC
  5
85
  8
0
  6
CONTINUOUS
 62
     7
 10
52.719102628500004
 20
-8.5019812450999979
 30
0.0
 40
20.0
 50
190.15703088320001
 51
241.0098235193
  0
LINE
  5
87
  8
0
  6
CONTINUOUS
 62
     7
 10
-15.0
 20
23.197833679799999
 30
0.0
 11
-15.0
 21
15.134965788100001
 31
0.0
  0
LINE
  5
8A
  8
0
  6
CONTINUOUS
 62
     7
 10
-50.0
 20
-35.751881026299998
 30
0.0
 11
-50.0
 21
-48.200689758700001
 31
0.0
  0
LINE
  5
8E
  8
0
  6
CONTINUOUS
 62
     7
 10
50.0
 20
-35.751881026299998
 30
0.0
 11
50.0
 21
-48.200689758700001
 31
0.0
  0
LINE
  5
8F
  8
0
  6
CONTINUOUS
 62
     7
 10
18.0
 20
12.134965788100001
 30
0.0
 11
20.335806686400002
 21
12.134965788100001
 31
0.0
  0
LINE
  5
91
  8
0
  6
CONTINUOUS
 62
     7
 10
-43.025909485299977
 20
-25.9960375697
 30
0.0
 11
-44.846596571599989
 21
-27.004852864
 31
0.0
  0
LINE
  5
92
  8
0
  6
CONTINUOUS
 62
     7
 10
15.0
 20
23.197833679799999
 30
0.0
 11
15.0
 21
15.134965788100001
 31
0.0
  0
LINE
  5
93
  8
0
  6
CONTINUOUS
 62
     7
 10
-18.0
 20
12.134965788100001
 30
0.0
 11
-20.335806686400002
 21
12.134965788100001
 31
0.0
  0
LINE
  5
94
  8
0
  6
CONTINUOUS
 62
     7
 10
-30.179088049800001
 20
3.8984316938000001
 30
0.0
 11
-33.032539901699998
 21
-12.0289130565
 31
0.0
  0
LINE
  5
95
  8
0
  6
CONTINUOUS
 62
     7
 10
30.179088049800001
 20
3.8984316938000001
 30
0.0
 11
33.032539901699998
 21
-12.0289130565
 31
0.0
  0
LINE
  5
96
  8
0
  6
CONTINUOUS
 62
     7
 10
43.025909485299977
 20
-25.9960375697
 30
0.0
 11
44.846596571599989
 21
-27.004852864
 31
0.0
  0
LINE
  5
120
  8
0
 10
-37.729474161100001
 20
-60.1609174839
 30
0.0
 11
37.729474161100001
 21
-60.1609174839
 31
0.0
  0
LINE
  5
1FF
  8
0
 10
-50.0
 20
-48.200689758700001
 30
0.0
 11
-50.0
 21
-59.160917483900008
 31
0.0
  0
LINE
  5
200
  8
0
 10
-49.0
 20
-60.1609174839
 30
0.0
 11
-37.729474161100001
 21
-60.1609174839
 31
0.0
  0
LINE
  5
201
  8
0
 10
37.729474161100001
 20
-60.1609174839
 30
0.0
 11
49.0
 21
-60.1609174839
 31
0.0
  0
LINE
  5
202
  8
0
 10
50.0
 20
-59.160917483899993
 30
0.0
 11
50.0
 21
-48.200689758700001
 31
0.0
  0
ARC
  5
259
  8
0
 10
-49.0
 20
-59.160917483900008
 30
0.0
 40
1.0
 50
180.0
 51
270.00000000000011
  0
ARC
  5
25C
  8
0
 10
49.0
 20
-59.160917483899993
 30
0.0
 40
1.0
 50
270.0
 51
0.0
  0
CIRCLE
  5
2B3
  8
0
 10
42.814738971425179
 20
-50.511156400601287
 30
0.0
 40
1.25
  0
CIRCLE
  5
2BB
  8
0
 10
42.814738971425179
 20
-55.308301801120251
 30
0.0
 40
1.25
  0
ENDSEC
  0
EOF
